<svg xmlns="http://www.w3.org/2000/svg" xmlns:xlink="http://www.w3.org/1999/xlink" id="svg1232" version="1.1" viewBox="0 0 166 83">
  <rect id="backgroundrect" width="100%" height="100%" fill="none"/>
  <defs id="defs1157">
    <linearGradient id="linear-gradient" x1="111.3" x2="122.5" y1="78.8" y2="90.1" gradientUnits="userSpaceOnUse">
      <stop id="stop1134" offset="0" stop-color="#528986"/>
      <stop id="stop1136" offset="1" stop-color="#446b66"/>
    </linearGradient>
    <linearGradient id="linear-gradient-2" x1="116.7" x2="128" y1="73.4" y2="84.7" xlink:href="#linear-gradient"/>
    <linearGradient id="linear-gradient-3" x1="112.4" x2="123" y1="86.2" y2="95" xlink:href="#linear-gradient"/>
    <linearGradient id="linear-gradient-4" x1="110.4" x2="121" y1="88.5" y2="97.3" xlink:href="#linear-gradient"/>
    <linearGradient id="linear-gradient-5" x1="124.8" x2="70" y1="70" y2="104.3" gradientUnits="userSpaceOnUse">
      <stop id="stop1142" offset="0" stop-color="#867e4c"/>
      <stop id="stop1144" offset="0" stop-color="#8d844f"/>
      <stop id="stop1146" offset=".1" stop-color="#9a8f55"/>
      <stop id="stop1148" offset=".3" stop-color="#a29559"/>
      <stop id="stop1150" offset=".5" stop-color="#a4975a"/>
      <stop id="stop1152" offset=".8" stop-color="#918751"/>
      <stop id="stop1154" offset="1" stop-color="#867e4c"/>
    </linearGradient>
    <linearGradient id="linearGradient1238" x1="111.3" x2="122.5" y1="78.8" y2="90.1" gradientUnits="userSpaceOnUse" xlink:href="#linear-gradient"/>
    <style id="style1132">
      .cls-2{fill:#8b814c}.cls-11{fill-rule:evenodd}.cls-3{fill:#436d67}.cls-11{fill:#404238}
    </style>
  </defs>
  <path id="svg_12" fill="#404238" fill-rule="evenodd" d="M41.8 47.8l-.2.5a7.3 7.3 0 00-.3 1 3.1 3.1 0 00-.2 1.2 1.7 1.7 0 00.3.7 2.7 2.7 0 001.1 1 4 4 0 001 .3 6 6 0 00.9.2 4 4 0 00.7 0h1.5l.9-.2h.7l.7-.3c.2 0 .5 0 .7-.2l1-.3 1-.3.9-.4 1.3-.5L55 50l.4-.1h.2c.3 0 .6 0 .7.2a.7.7 0 01.3.5 2 2 0 01-.4 1.2 8.5 8.5 0 01-1 1.2l-.6.8a7.5 7.5 0 00-.9 1.2 4 4 0 01-.3.6 3.3 3.3 0 01.1-.5 6.2 6.2 0 01.4-.9 5.7 5.7 0 01.6-1l.8-1c.3-.2.3-.3.4-.5.2-.2.1-.3 0-.3a1.3 1.3 0 00-.7 0l-1 .4-.8.3-1 .4-.8.3-1 .4-1.3.3h-.6l-.5.2-.7.1-.4.1h-.4a4.4 4.4 0 01-.5 0 5.6 5.6 0 01-.9.1 11.1 11.1 0 01-1.4 0 3.5 3.5 0 01-1-.4 3.5 3.5 0 01-1-.7 3.2 3.2 0 01-.4-.6 4.5 4.5 0 01-.3-.7 4 4 0 01-.1-1.5 3.2 3.2 0 010-.6 4.3 4.3 0 01.2-.6l.6-1.2.1-.1z" class="cls-11"/>
  <path id="svg_13" fill="#404238" fill-rule="evenodd" d="M12.2 51.6a1.4 1.4 0 010-.3 2.3 2.3 0 00.2-.9 1.2 1.2 0 00-.7.5 3 3 0 01-.2.3l-.4.5a2.5 2.5 0 01-1 .7.7.7 0 01-.3 0H9a1.7 1.7 0 01-1-.2 2.6 2.6 0 01-.9-1 20 20 0 00-.7-1 .5.5 0 00-.5-.2 2.4 2.4 0 00-1.3 1l-.3.5a5.8 5.8 0 00-.3.5c0 .3-.2.5-.3.7l-.5 1.1a2.7 2.7 0 01-.7 1 .9.9 0 01-.8.1 1.4 1.4 0 01-1-.8 9 9 0 01-.4-1 3.2 3.2 0 01-.2-1v-1.7a4.5 4.5 0 010-.6c0-.3.2-.6.3-.8a1.8 1.8 0 01.1-.4c.2.1.1.2 0 .3a.5.5 0 000 .2v2.4l.2.6a3 3 0 00.2.8 1.2 1.2 0 00.8.8 1 1 0 00.9-.2 3.9 3.9 0 00.8-1.4l.2-.3.5-1.1a5.5 5.5 0 01.8-1.2l.5-.6a2 2 0 01.7-.4.7.7 0 01.8.1 3.2 3.2 0 01.6.9 4.7 4.7 0 00.6.9 1.6 1.6 0 00.9.4 2.1 2.1 0 00.4 0h.3a2.2 2.2 0 001.3-.6l1-1 .5-.3a.4.4 0 01.6.2 1.4 1.4 0 010 1 9.4 9.4 0 01-.3.8 4.4 4.4 0 01-.4.6z" class="cls-11"/>
  <path id="svg_14" fill="#404238" fill-rule="evenodd" d="M60.3 49.4c.1-.1.2 0 .2.2a5.6 5.6 0 01.4.6 1.9 1.9 0 01.2.6 7.7 7.7 0 010 1.2 3.6 3.6 0 01-.2.8 1.9 1.9 0 01-.6 1 1 1 0 01-.7.3h-.8a2 2 0 01-.3-.2 1.6 1.6 0 01-.8-1 3.2 3.2 0 01-.3-.9v-.9l-.1-1v-.7l-.1-2v-4l-.1-1-.2-1.1v-.7l-.2-.4-.2-.8V39c0-.1 0-.5.2-.7a1 1 0 01.2-.4 6 6 0 01.3.6l.2 1 .1.6.2 1v1.8l.1.9V47.2l.1 1.6v1.4a4.3 4.3 0 000 .7 5.6 5.6 0 00.3.8 1 1 0 00.4.6 2 2 0 00.5.2 2 2 0 00.5 0 1 1 0 00.8-.3c.2-.2.3-.2 0-.5l-.5-1.1a.2.2 0 010-.2 2.7 2.7 0 01.2-1 .8.8 0 00.2 0z" class="cls-11"/>
  <path id="svg_16" fill="#404238" fill-rule="evenodd" d="M36.2 45l.2 3.4.1.8V52a7.2 7.2 0 010 1 6.3 6.3 0 01-.7 2 1.3 1.3 0 010 .1v-.3a2.3 2.3 0 000-.3v-2V50.5l-.2-1v-1.2l-.2-3.3v.3-1.5l-.1-1.6v-.8l-.1-1-.2-.9a1.6 1.6 0 010-.6 8 8 0 01.4-.9v-.1l.2.2a20.5 20.5 0 01.7 2 7.7 7.7 0 01.3.8v.5l-.6-.6v2.5" class="cls-11"/>
  <path id="svg_17" fill="#404238" fill-rule="evenodd" d="M62.7 39.3c0 .2.2.3.3.5l.3 1 .5 1.3a3 3 0 01.1.6c-.3 0-.4-.3-.7-.5v2.5l.2 1v2l.2 1.4v3.5a7.9 7.9 0 010 1 7 7 0 01-.5 1.5l-.2.5a.4.4 0 01-.1.1v-.6-3.8-1l-.1-1.2V46.7l-.1-.7v-.7l-.1-1.6v-1.9l-.2-.8a1.4 1.4 0 010-.6 7.4 7.4 0 01.3-1l.1-.1z" class="cls-11"/>
  <path id="svg_18" fill="#404238" fill-rule="evenodd" d="M59.6 38.1a1.7 1.7 0 01-.1 1 1.6 1.6 0 010-.4 1.3 1.3 0 00-.3-.8c-.1-.1-.3-.2-.2-.4a1 1 0 010-.3h.2a4.6 4.6 0 00.6.4 2.7 2.7 0 001 .2h1a3.7 3.7 0 00.7 0l.4-.1.5-.2 1-.4a.7.7 0 01.3 0 .2.2 0 01.2.2.9.9 0 01-.2.7l-.5.5-.3.5h-.1a3 3 0 01.9-1.3c-.2-.2-.2-.2-.5 0l-1 .3-.8.3a4.6 4.6 0 01-1.5 0 2.5 2.5 0 01-1-.1 1.3 1.3 0 00-.3 0z" class="cls-11"/>
  <path id="svg_19" fill="#404238" fill-rule="evenodd" d="M89.3 37.6a1.8 1.8 0 01-.1.2l-.3.4a.4.4 0 01-.2.2c-.7.1-1.3.4-2 .6l-2.4.6-.7.2-1.5.4-.7.2-1.1.3-1.4.4-.8.2-.6.1-1.8.5-1.7.4-.9.2-1 .3-1.8.6-.2.1H70l.2-.6a.5.5 0 01.3-.2L72 42l1-.3 1.4-.4 1-.2 1.3-.3 1-.3 3-.8 4-1 3.7-1z" class="cls-11"/>
  <path id="svg_21" fill="#404238" fill-rule="evenodd" d="M74.4 56.8l.1-.2.4-.7c.2-.3.1-.1.2 0l1.2.7a.2.2 0 010 .2.5.5 0 010 .2l-.5.8c0 .1 0 .2-.1 0l-.8-.4-.3-.2h-.1l-.4.7a.3.3 0 01-.2.2l-.8-.5a5.9 5.9 0 01-.5-.3.2.2 0 010-.3 4.7 4.7 0 01.2-.5 4.3 4.3 0 01.3-.4c0-.1.2-.1.2 0a4.8 4.8 0 001 .6z" class="cls-11"/>
  <path id="svg_22" fill="#404238" fill-rule="evenodd" d="M68.2 46.7l.1-.2.4-.7c.2-.2.1-.1.3 0l1 .7a.2.2 0 01.1.2.4.4 0 010 .2l-.4.8v.1a.1.1 0 01-.2 0l-.8-.5-.3-.2a1.3 1.3 0 01-.1.1l-.4.6a.3.3 0 01-.2.2l-.8-.4a3 3 0 01-.5-.4.2.2 0 010-.3l.3-.5a4.4 4.4 0 01.3-.4c0-.1 0-.1.2 0a4.6 4.6 0 001 .6z" class="cls-11"/>
  <path id="svg_23" fill="#404238" fill-rule="evenodd" d="M47 46.7a1.6 1.6 0 00.2-.2l.4-.7c0-.1 0-.1.2 0l1.1.7a.2.2 0 010 .2.4.4 0 010 .2l-.4.8v.1a.1.1 0 01-.2 0l-.7-.5-.4-.2a1.3 1.3 0 010 .1l-.4.6a.3.3 0 01-.2.2l-.8-.4a3.4 3.4 0 01-.5-.4.2.2 0 010-.3c0-.1 0-.3.2-.5l.2-.4c.1-.2.2-.1.3 0a4.6 4.6 0 001 .6z" class="cls-11"/>
  <path id="svg_24" fill="#404238" fill-rule="evenodd" d="M4.2 45.8v-.2l.5-.7H5l1.1.8a.2.2 0 01.1.2.4.4 0 010 .1l-.5.9s0 .1-.1 0l-.8-.5-.3-.2a.5.5 0 01-.1.1l-.4.7a.3.3 0 01-.2.2l-.8-.5a4.5 4.5 0 01-.5-.4.2.2 0 010-.2 4.7 4.7 0 01.2-.5L3 45c.1-.1.2-.1.2 0a4.6 4.6 0 001 .6z" class="cls-11"/>
  <path id="svg_25" fill="#404238" fill-rule="evenodd" d="M60 56.8l.2-.2.4-.7c0-.1.1-.1.2 0l1.1.7a.2.2 0 01.1.2 1 1 0 010 .2l-.5.8c0 .1 0 .2-.2 0l-.7-.4-.4-.2-.4.7a.3.3 0 01-.2.2l-.8-.5-.5-.3a.2.2 0 010-.3l.2-.5.3-.4a.1.1 0 01.2 0 4.5 4.5 0 001 .6z" class="cls-11"/>
  <path id="svg_26" fill="#404238" fill-rule="evenodd" d="M20.8 56.8a2 2 0 01.1-.2l.5-.7c0-.1 0-.1.2 0l1 .7a.2.2 0 01.2.2.5.5 0 010 .2l-.5.8a.1.1 0 01-.2 0l-.8-.4-.3-.2-.5.7a.3.3 0 01-.2.2l-.8-.5a5.9 5.9 0 01-.4-.3.2.2 0 010-.3 4.7 4.7 0 01.2-.5 4.3 4.3 0 01.3-.4c0-.1.1-.1.2 0a4.8 4.8 0 001 .6z" class="cls-11"/>
  <path id="svg_27" fill="#404238" fill-rule="evenodd" d="M5 56.8l.2-.2.4-.7c0-.1.1-.1.2 0l1.1.7a.2.2 0 01.1.2v.2l-.5.8c0 .1-.1.2-.2 0l-.8-.4-.3-.2-.5.7a.3.3 0 01-.2.2l-.8-.5-.5-.3a.2.2 0 010-.3l.3-.5.3-.4a.1.1 0 01.2 0 4.5 4.5 0 001 .6z" class="cls-11"/>
  <path id="svg_30" fill="#404238" fill-rule="evenodd" d="M75.4 48.2l-.2.5a.5.5 0 01-1 .2.9.9 0 01-.1-.5v-.6a.5.5 0 00-.1-.2.2.2 0 010-.2 1.4 1.4 0 01.1-.5l.2.1a2.1 2.1 0 010 .6v.3a.5.5 0 00.4.5.5.5 0 00.5-.2.6.6 0 00.1-.7 1.5 1.5 0 00-.2-.4 1 1 0 010-.7h.2a2 2 0 01.2.4l.1.6a.8.8 0 00.3.5l.4.2c.2 0 .2 0 .2-.2a2.1 2.1 0 01-.2-.3l-.2-.4a.7.7 0 010-.5l.1-.3.1.2.3.6a1.5 1.5 0 010 1.2c0 .4-.3.4-.6.3a.9.9 0 01-.4-.4z" class="cls-11"/>
  <path id="svg_31" fill="#404238" fill-rule="evenodd" d="M11.3 46.6l-.4.4a.6.6 0 01-.6.2.7.7 0 01-.5-.7l.1-.6a.4.4 0 000-.1 2 2 0 010-.8.9.9 0 01.2-.2.3.3 0 010 .2A5.6 5.6 0 0110 46a.3.3 0 000 .3.5.5 0 00.5.2.4.4 0 00.3-.1l.1-.2a.4.4 0 00.1-.5v-.1a1.3 1.3 0 010-.8 1.1 1.1 0 010-.2 1.2 1.2 0 01.1.2 2.4 2.4 0 01.2.8.5.5 0 00.1.3 2 2 0 00.4.3.4.4 0 00.4 0v-.1a1.6 1.6 0 01-.4-.8 1 1 0 01.1-.6l.3.5a2 2 0 00.2.4.8.8 0 010 .5v.5a.5.5 0 01-.8.2l-.3-.3z" class="cls-11"/>
  <path id="svg_33" fill="#404238" fill-rule="evenodd" d="M30 41.4a.4.4 0 01-.3.4h-.5l-.5.2-2.3.8-1.2.4-.9.3a3 3 0 00-.3.2h-.1-.2a2.6 2.6 0 01.1-.4.2.2 0 01.2 0l1.5-.7 1.4-.5 1.5-.4.7-.2h.1l.3-.1.2-.1c.2-.1.3 0 .3.1z" class="cls-11"/>
  <path id="svg_35" fill="#404238" fill-rule="evenodd" d="M98.8 54.9l-1-.5-.5-.2c-.1 0-.2-.1-.1-.3a1.8 1.8 0 01.3-.7l.1-.3c.1-.1.2-.2.4-.1l1 .5c.4.2.4.2.3.5a6.7 6.7 0 01-.5 1z" class="cls-11"/>
  <path id="svg_36" fill="#404238" fill-rule="evenodd" d="M28.3 46.7l-.9-.4-.4-.2a.2.2 0 01-.1-.3 1.5 1.5 0 01.2-.7l.2-.3h.3l1 .4c.3.2.3.2.2.5a4.8 4.8 0 01-.4 1z" class="cls-11"/>
  <path id="svg_37" fill="#404238" fill-rule="evenodd" d="M79.5 57.7a.8.8 0 010-.2.8.8 0 01.5-.6l1.6-.6 1.6-.7 2-.6.4-.2-.2.5a.3.3 0 01-.2.1L84 56l-1 .3-1 .4-1 .5-1.4.6z" class="cls-11"/>
  <path id="svg_41" fill="#404238" fill-rule="evenodd" d="M39.2 43.7a.6.6 0 010-.2 3 3 0 01.2-.4.3.3 0 01.2-.1l1.8-.9a91.5 91.5 0 014.7-1.7l2.8-1 1.7-.6.7-.3L53 38l.7-.2.2-.1a1.1 1.1 0 01-.5.6l-2.4.9-1.5.5-1.6.6-2 .7-1 .4c-.4 0-1 .3-1.5.5l-2 .7-1 .5a5.8 5.8 0 00-.6.3l-.3.3z" class="cls-11"/>
  <path id="svg_42" fill="#404238" fill-rule="evenodd" d="M44.9 45.2c0-.2-.2-.2-.3-.3a.8.8 0 01-.3-.1.3.3 0 01-.1-.3 1.4 1.4 0 01.9-1.1 13.6 13.6 0 011.4-.7l3-1 2.2-.8 1.7-.6 1-.3a.4.4 0 01-.2.4l-1.2.4c-.5.2-1 .5-1.6.6l-2.2.8-1.2.5-1 .3-1.7.7-.5.2a.7.7 0 00-.3.3v.2a1 1 0 00.3.1.3.3 0 01.2.2.7.7 0 010 .4z" class="cls-11"/>
  <path id="svg_54" fill="#404238" fill-rule="evenodd" d="M8.6 43.7a.7.7 0 00.1 0l.5.3a.1.1 0 010 .2l-.1.4a.1.1 0 01-.2 0 2.4 2.4 0 01-.6-.3.3.3 0 010-.4l.2-.4a1.3 1.3 0 01.7-.7l.8-.3.7-.2 1-.3.7-.3 1.2-.4.7-.2.3-.2.7-.1 3.3-1 1.4-.4 1.5-.4 1.4-.4 1-.3.9-.2a1.4 1.4 0 01.2 0v.1l-.2.3a.3.3 0 01-.2.2l-1.4.4-1 .2-1.2.4-.8.2-1.5.5-1.7.5-.7.1-.7.2-1 .4-1.5.4-.7.3c-.2 0-.4 0-.6.2l-.7.2-.3.1-.6.2-.9.4a2 2 0 00-.7.3z" class="cls-11"/>
  <path id="svg_55" fill="#404238" fill-rule="evenodd" d="M9.3 41l-.5-.6a.5.5 0 000 .1 6.3 6.3 0 01-1.4 1.2l-1.1.7-1 .6-.8.4-.2.1H4a8.1 8.1 0 011.3-.8l1.5-1 1-.8.6-.6a1.6 1.6 0 00.1-.1l-.3-.4-.3-.4a.6.6 0 010-.6 1.7 1.7 0 01.6-.7.7.7 0 01.6 0 .4.4 0 01.2.2 1 1 0 01.1.6 1.8 1.8 0 01-.3.8.2.2 0 000 .3l.3.5a.3.3 0 010 .3zm-1-2.2a3.7 3.7 0 00.7.8.9.9 0 000-.9.2.2 0 00-.1 0h-.5z" class="cls-11"/>
  <path id="svg_58" fill="#404238" fill-rule="evenodd" d="M64.5 43.5l.5-.4 2-1.4a15.2 15.2 0 001.6-1.3 5.6 5.6 0 00.5-.5l.1-.2-.5-.5a.6.6 0 01-.1-.5.5.5 0 010-.2 1.8 1.8 0 01.3-.5.8.8 0 01.6-.2.3.3 0 01.3.2 1.3 1.3 0 010 .8 1.2 1.2 0 01-.2.6l.3.6a.3.3 0 010 .3v.2a.2.2 0 01-.1 0 1.5 1.5 0 00-.5-.6 6.2 6.2 0 01-.6.7 10.2 10.2 0 01-1.2 1.1 4.5 4.5 0 01-.6.5l-2.3 1.3zm5-4.2l.1-.2a.7.7 0 000-.7.2.2 0 00-.3-.1 1 1 0 00-.2.1c-.1.1-.2.2 0 .4z" class="cls-11"/>
  <path id="svg_69" fill="#404238" fill-rule="evenodd" d="M32 46v-2.1V45" class="cls-11"/>
  <path id="svg_70" fill="#404238" fill-rule="evenodd" d="M39.4 50.5l-1.2-.1-.8-.1h-.5L36 50l-.8-.1-.4-.1-.6-.1-.6-.2-.8-.1-.6-.2-.7-.1-.6-.2.4-.5a2.9 2.9 0 00.4-.8 6 6 0 00.2-.8 1.5 1.5 0 000-.3 2.7 2.7 0 000-.5v-.4a2.5 2.5 0 000-.4l-.1-2.6v-.6l-.1-.7v-.9c.3.2.4.5.7.6a1.6 1.6 0 000-.4l-.4-1c0-.4-.2-.7-.3-1l-.4-1a.5.5 0 00-.1-.1l-.5 1a.5.5 0 000 .5 1 1 0 01.1.4v2.7l.1.8.1.7V43 44.4l.3 2.3v.5a.5.5 0 01-.2.4 4.4 4.4 0 01-.7.3l-1.4.5-1.2.3a.5.5 0 00-.3.3l-.3.7c-.1.2 0 .2.1.2h1.4l.4.1.6.2 1 .2 1 .2.7.2.6.2h.3l-.6.2-1 .3-1.1.4-.7.2-.7.2h-.8l-.3.1-.8.2a8.4 8.4 0 01-.8 0h-2l-1-.1a5.5 5.5 0 01-.8-.2 5 5 0 01-.9-.3 3.6 3.6 0 01-1.2-1 1.4 1.4 0 01-.2-.3 3.5 3.5 0 01-.2-.6l-.3-1.2-.1-1-.3-1a.8.8 0 00-.4-.5.2.2 0 00-.2 0 .6.6 0 00-.2.2v.8a1.9 1.9 0 01-.3 1 .9.9 0 01-.8.4h-.3a.7.7 0 01-.7-.4l-.2-.5a1 1 0 00-.1-.2l-.2.4-.2.7v.3a1.9 1.9 0 00.1.4l.3.7.3.9a5.7 5.7 0 010 .5 3 3 0 010 .3.5.5 0 010 .2 2.2 2.2 0 01-.2.4 8.5 8.5 0 01-.5.5 5 5 0 01-.4.4l-1 .6-1.5 1a11 11 0 01-1.3.6 2.5 2.5 0 01-.4.1 4.9 4.9 0 01-.8.1 1.9 1.9 0 01-.5 0 1.6 1.6 0 01-.7-.5 5.8 5.8 0 01-.3-.5 1.7 1.7 0 01-.4-.9 7 7 0 010-1v-.4l.2-.8.2-.7v-.3a.9.9 0 000 .1l-.4.8-.3 1.1a2.6 2.6 0 000 .4 4.9 4.9 0 00-.1.5v1a2.7 2.7 0 00.1 1A2.3 2.3 0 009.8 57a2 2 0 00.8.2 7 7 0 00.8 0l.7-.3 1-.4 1.1-.7a15.7 15.7 0 001.7-1.3l.6-.6a1 1 0 00.2-.3 8.1 8.1 0 00.3-.8 6.6 6.6 0 00.2-.9 9 9 0 000-1v-.6a.5.5 0 00.2 0 1 1 0 001-.5 3.2 3.2 0 00.3-.8l.1-.6a.8.8 0 01.1-.2h.2a.3.3 0 010 .1l.2.7.2.8v.7l.1.4a3.6 3.6 0 00.3.8 3 3 0 00.9 1l.8.6a2.8 2.8 0 00.8.3l1.1.3h.4l.8.2H27c.2-.2.4-.2.5-.2a3.5 3.5 0 00.5 0l1.4-.3 1.2-.3 1.6-.6 1.7-.5 1.3-.3a7 7 0 01.9-.1h2.7a.4.4 0 00.4-.3c0-.3.2-.5.4-.8.1-.3 0-.3-.2-.3z" class="cls-11"/>
  <path id="svg_71" fill="#404238" fill-rule="evenodd" d="M65.7 50a.7.7 0 010 .2l-.1 1.3a8.2 8.2 0 000 2.7 2.4 2.4 0 00.5.8 1 1 0 001.7.1 4.7 4.7 0 00.6-1l1.2-2.2a4.8 4.8 0 011.4-1.6 2 2 0 01.7-.3.7.7 0 01.8.3 5.3 5.3 0 01.4.6l.7 1a2.2 2.2 0 001.9.9 3.7 3.7 0 002-.6 7 7 0 00.8-.7l.7-.7a.7.7 0 01.2 0 .5.5 0 010 .1v.4a2 2 0 000 .6 1 1 0 00.8.8 4.1 4.1 0 002.2-.5l.7-.3-.8-.7a2.8 2.8 0 00-1-.5 1.5 1.5 0 00-1 .1s-.2.2-.2 0a.3.3 0 010-.2l.4-1a.7.7 0 01.3-.3 6 6 0 011.4-.4 10.2 10.2 0 012.5-.2 6 6 0 012.8.8l.6.5a.2.2 0 010 .3l-.5 1a.2.2 0 01-.1 0l-1.8.8h-.2l.1.2a2.3 2.3 0 002.4.4 3 3 0 001.7-1.2l.5-.8c.1-.2.2-.3.5-.3a.8.8 0 01.4-.5 10.6 10.6 0 012-.9 29.4 29.4 0 013.8-1h.2l-.7-.3-2.5-.8a2.1 2.1 0 00-.3 0 .3.3 0 00-.3 0 .4.4 0 01-.3.2l-2.1-.2h-.2a.2.2 0 01-.1-.2 1 1 0 010-.2l.6-1a.4.4 0 01.4-.3H93a2 2 0 01.9 0l4.5 1.6a11.4 11.4 0 001.4.4l2.5.4c.2 0 .3.1.2.3l-.5.8a.4.4 0 01-.4.2h-1.4a7.9 7.9 0 00-2.5.2l-3 .8-2 .7h-.1l.4.4a2.5 2.5 0 01.8 1.9 2 2 0 01-1.1 1.7 1 1 0 01-.6.1 2 2 0 01-.7-.2 3.5 3.5 0 01-1.7-2.1l-.5.7a3.9 3.9 0 01-1.4 1.3 2.4 2.4 0 01-2.3-.1A8.3 8.3 0 0184 53h-.3L82 54a3.2 3.2 0 01-2.1.4 1.8 1.8 0 01-1.5-1.5v-.2l-.3.5a3.8 3.8 0 01-2.2 1.2 3 3 0 01-1.6 0 2.5 2.5 0 01-1.5-1.2l-.5-1A.8.8 0 0071 52a3.2 3.2 0 00-1 .8 6 6 0 00-.9 1.5 31 31 0 01-.9 1.9 2.3 2.3 0 01-.5.6 1 1 0 01-1.5 0 2.5 2.5 0 01-.6-.9 6.3 6.3 0 01-.6-3.2 9.4 9.4 0 01.3-2l.2-.5a.7.7 0 010-.1zm20 .6a4.9 4.9 0 00-2.5-.3l1.1 1zm6.8 2.4h.3a.7.7 0 00-.1-.3 2.2 2.2 0 00-1.7-1 .1.1 0 00-.1 0 .1.1 0 000 .1 3.1 3.1 0 00.8.9 1.9 1.9 0 00.8.3z" class="cls-11"/>
  <g id="g1228">
    <path id="svg_1" fill="#8b814c" fill-rule="evenodd" d="M113.3 50.8a.6.6 0 010 .5 4.8 4.8 0 01-.8 2.1 1.2 1.2 0 01-1.4.5 1.4 1.4 0 01-.9-.8 4.3 4.3 0 010-2.4 26.8 26.8 0 011.7-4.6l.9-2a.6.6 0 01.3-.4 1.8 1.8 0 010 .5l-.5 1.2-1.3 3.6a2.6 2.6 0 000 2.2 1.4 1.4 0 00.6.6c.3.2.5.1.8-.2a4 4 0 01.6-.8z"/>
    <path id="svg_2" fill="#8b814c" d="M158.1 268.2h6.2v6.2h-6.2z" class="cls-2" transform="rotate(-137 93.6 179.3)"/>
    <path id="svg_3" fill="#8b814c" d="M181.8 273.3h6.1v6.1h-6.1z" class="cls-2" transform="rotate(-137 108.6 184.5)"/>
    <path id="svg_4" fill="#436d67" d="M241 326h4.2v4.4H241z" class="cls-3" transform="rotate(-137 142.3 223.5)"/>
    <path id="svg_5" fill="#436d67" d="M257.4 329.8h4.3v4.3h-4.3z" class="cls-3" transform="rotate(-137 152.8 227.4)"/>
    <path id="svg_7" fill="url(#linearGradient1238)" d="M155 50.1a46.7 46.7 0 00-5.6 5.3c12.6 10 11 14.1 11 14.1 4-7.8.5-13.9-5.5-19.4z"/>
    <path id="svg_8" fill="url(#linear-gradient-2)" d="M146.5 43.3l-3-2.2c-15-11.5-28.6-26.6-19.2-39a7.4 7.4 0 011.9-2.1C109 12.9 127 39.1 141 48.7a127 127 0 015.5-5.4z"/>
    <path id="svg_9" fill="url(#linear-gradient-3)" d="M138 52l-.7-.6A150 150 0 01126 40.9c-6.4-7.2-9.2-12-4.4-18.1l-1.6 1.7a15.6 15.6 0 00-1 18.4 82 82 0 0014.6 14.3z"/>
    <path id="svg_10" fill="url(#linear-gradient-4)" d="M165 56.8c1 7 .2 11.3-1.3 13.5a8.3 8.3 0 01-3 2.6 6.7 6.7 0 01-2.5.7c-.2-5-4.5-9.1-8.2-12.3l-3.6-2.9-4.4 5.2 4.4 3.7c3 2.8 6.5 6.4 7 10.8a8.8 8.8 0 010 1.5l-.1.4-.2.6a5.7 5.7 0 01-1.1 2 33 33 0 016.4-4.9l.2-.1 1.7-1c9.2-7 4.6-19.8 4.6-19.8z"/>
    <path id="svg_11" fill="url(#linear-gradient-5)" d="M102.3 74.3c5.6 5.3 14.6 9.8 22 5.7 5-2.8 8.9-7.5 12.5-11.8 4.2-5 8.2-10.2 12.8-14.8 3.6-3.6 8.1-7.4 13.4-7.7a11.7 11.7 0 013 .2 12.8 12.8 0 00-6.5-4.7c-7.5-2-12.3 2.6-17 7.6-4.4 4.7-8.4 9.9-12.7 14.8a62.1 62.1 0 01-7.5 7.7c-9 7.4-15 7-22 .9z"/>
  </g>
  <path id="svg_33-4" fill="#404238" fill-rule="evenodd" stroke-width="1.5" d="M89.5 42.5a.6.5 0 01-.5.5l-.8.2-.7.2-3.7 1-2 .6-1.4.5a4.8 4.2 0 00-.5.2h-.2a.1.1 0 01-.2 0 4.2 3.7 0 01.1-.5.4.3 0 01.2-.1c.8-.4 1.7-.6 2.5-.9l2.3-.7 2.3-.6 1.2-.3h.1l.6-.1.3-.1c.2-.2.3 0 .4.1z" class="cls-11"/>
  <path id="svg_28" fill="#404238" fill-rule="evenodd" d="M94.2 40.9h-1a1.8 1.8 0 00-.7 0l-.2-.1a.8.8 0 01.1-.3l.4-.7a.5.5 0 01.3-.2 2.7 2.7 0 01.4 0h.7a5.5 5.5 0 011 .1c.1 0 .2.1.2.3a.6.6 0 01-.1.4 5.5 5.5 0 01-.9 1 2.8 2.8 0 01-1.4.7l-1 .2a.5.5 0 01-.2 0s-.1 0 0-.1a.9.9 0 01.2-.2 11.1 11.1 0 002.1-.9h.1v-.2z" class="cls-11"/>
</svg>